<svg xmlns="http://www.w3.org/2000/svg" style="display: none;">
  
    <symbol id="icon-comment" viewBox="0 0 512 512">
      <path d="m416 64l-320 0c-31 0-64 32-64 64l0 192c0 64 64 64 64 64l32 0 0 128 128-128c0 0 129 0 160 0 31 0 64-34 64-64l0-192c0-31-32-64-64-64z"/>
    </symbol>
  
    <symbol id="icon-fork-knife" viewBox="0 0 512 512">
      <path d="m176 0c-9 0-16 7-16 16l0 96c0 9-7 16-16 16c-9 0-16-7-16-16l0-96c0-9-7-16-16-16c-9 0-16 7-16 16l0 96c0 9-7 16-16 16c-9 0-16-7-16-16l0-96c0-9-7-16-16-16c-9 0-16 7-16 16l0 121c0 12 3 22 9 32c6 10 13 17 23 23l0 272c0 26 21 48 47 48l2 0c26 0 47-22 47-48l0-272c10-6 18-13 23-23c6-10 9-20 9-32l0-121c0-9-7-16-16-16z m-64 480c-9 0-16-7-16-16c0-9 7-16 16-16c9 0 16 7 16 16c0 9-7 16-16 16z m240-480l-32 0c-18 0-32 14-32 32l0 448c0 17 14 32 31 32l34 0c17 0 31-15 31-32l0-160l32 0c18 0 32-14 32-32l0-192c0-53-43-96-96-96z"/>
    </symbol>
  
    <symbol id="icon-skyscraper-2" viewBox="0 0 512 512">
      <path d="m256 128l0-128l-224 0l0 480l-32 0l0 32l512 0l0-384z m-64 352l-96 0l0-64l96 0z m32-128l-160 0l0-32l160 0z m0-64l-160 0l0-32l160 0z m0-64l-160 0l0-32l160 0z m0-64l-160 0l0-32l160 0z m0-64l-160 0l0-32l160 0z m160 352l-64 0l0-64l64 0z m0-96l-64 0l0-64l64 0z m0-96l-64 0l0-64l64 0z m96 192l-64 0l0-64l64 0z m0-96l-64 0l0-64l64 0z m0-96l-64 0l0-64l64 0z"/>
    </symbol>
  
    <symbol id="icon-bookmark-star-favorite" viewBox="0 0 512 512">
      <path d="m512 192l-192 0l-72-184l-56 184l-192 0l149 109l-54 179l153-107l168 107l-69-179z"/>
    </symbol>
  
    <symbol id="icon-search" viewBox="0 0 512 512">
      <path d="m493 416l-125-125c18-29 29-62 29-99 0-106-86-192-192-192-106 0-192 86-192 192 0 106 86 192 192 192 36 0 70-11 99-28l125 124c9 9 23 9 32 0l32-32c9-9 9-23 0-32z m-288-96c-71 0-128-57-128-128 0-71 57-128 128-128 70 0 128 57 128 128 0 71-58 128-128 128z"/>
    </symbol>
  
    <symbol id="icon-three-bars" viewBox="0 0 512 512">
      <path d="m64 96l0 64 384 0 0-64z m0 192l384 0 0-64-384 0z m0 128l384 0 0-64-384 0z"/>
    </symbol>
  
    <symbol id="icon-phone-1" viewBox="0 0 512 512">
      <path d="m447 403l-2-6c-8-18-102-46-110-46l-7 0c-12 3-27 15-56 42c-34-16-80-57-102-82c-23-26-53-71-63-104c34-30 48-43 49-58c0-8-16-105-33-115l-5-3c-11-7-27-18-46-14c-4 1-8 3-12 5c-13 8-43 29-56 56c-9 17-13 172 103 303c98 110 215 130 261 131l6 0c5 0 8 0 11-1l0 0l2-1c29-10 53-37 62-48c17-21 5-46-2-59z"/>
    </symbol>
  
    <symbol id="icon-globe-world" viewBox="0 0 512 512">
      <path d="m256 37c40 0 77 9 110 29c34 20 60 46 80 80c20 33 29 70 29 110c0 40-9 77-29 110c-20 34-46 60-80 80c-33 20-70 29-110 29c-40 0-77-9-110-29c-34-20-60-46-80-80c-20-33-29-70-29-110c0-40 9-77 29-110c20-34 46-60 80-80c33-20 70-29 110-29z m78 148c0 1-1 2-2 3c-2 2-3 3-4 3c0 0 1-1 1-2c0-1 1-2 1-3c1-1 1-2 1-2c2-1 4-2 7-4c2-1 7-2 15-3c6-2 11-1 14 3c0-1 1-2 3-4c2-2 3-3 4-3c1-1 2-1 4-2c3 0 4-1 5-2l0-6c-2 0-4-1-5-2c-1-2-2-4-2-6c0 0 0 1-1 2c0-1-1-2-2-2c-1 0-2 0-3 0c-1 1-2 1-3 0c-1 0-3-1-4-2c-1-1-2-2-2-4c-1-3-1-4-1-5c-1-1-2-2-3-3c-1-1-2-2-3-3c0 0 0-1 0-1c-1-1-1-2-1-2c-1-1-1-1-1-2c-1 0-1 0-2 0c-1 0-1 0-2 1c-1 1-1 2-2 3c-1 1-1 1-1 1c-1 0-2 0-2 0c-1 0-1 0-1 0c-1 0-1 1-2 1c0 0-1 1-1 1c-1 0-2 1-3 1c-1 0-1 0-2 0c3-1 3-2 0-3c-2 0-4-1-5-1c2 0 3-1 2-3c0-2-1-3-2-4l1 0c0-1-1-2-2-2c-2-1-3-2-5-3c-2-1-3-1-4-2c-1-1-5-1-10-2c-5-1-8-1-9 0c-1 1-1 2-1 3c0 0 0 2 1 4c1 1 1 3 1 3c0 1 0 3-2 4c-1 1-2 2-2 3c0 2 2 3 4 5c3 1 4 3 3 6c0 1-2 3-4 4c-3 2-4 3-5 4c-1 1-1 3 0 5c0 2 1 4 3 5c0 0 0 1 0 1c0 0 0 1-1 1c0 1-1 1-1 1c-1 1-2 1-2 1l-1 1c-2 1-4 0-6-2c-2-2-3-4-4-7c-1-5-3-8-4-9c-5-1-8-1-9 1c-1-3-5-5-11-8c-5-2-11-2-17-1c1 0 1-2 0-4c-1-3-3-4-5-4c0-1 1-3 1-5c0-2 0-3 0-4c1-2 2-4 3-6c1 0 1-1 2-3c2-1 2-2 3-3c1-2 1-2 0-2c7 1 12 0 15-3c1-1 2-3 3-5c1-2 2-4 3-5c2-1 3-2 4-2c1 1 2 1 4 2c2 1 3 1 4 1c3 1 4 0 5-3c0-2-1-4-3-5c3 0 3-2 1-5c-1-2-1-2-2-3c-2-1-5 0-8 2c-1 0-1 1 1 2c0 0-1 1-3 3c-1 2-3 4-5 5c-1 1-3 1-4-2c0 0-1-1-2-3c-1-3-1-4-2-4c-2 0-3 1-5 4c1-2 0-3-3-4c-3-2-5-2-7-3c4-2 3-4-2-7c-2-1-4-2-6-2c-3 0-5 0-6 1c-1 2-1 3-1 4c0 1 0 1 1 2c1 1 2 1 3 2c1 0 2 0 3 1c2 0 2 0 3 1c3 1 3 3 2 4c0 0-1 0-2 1c-2 0-3 0-4 1c-1 0-1 1-1 1c-1 1-1 2 0 4c0 2 0 3-1 4c-1-1-2-3-2-5c-1-2-2-4-2-5c1 2-1 3-8 2l-2 0c-1 0-3 0-5 0c-2 1-4 1-6 1c-1-1-3-1-4-3c0-1 0-3 0-5c0-1 1-1 1-1c0-1-1-1-3-3c-1-1-2-2-3-2c-8 3-17 7-26 12c1 0 2 0 3-1c1 0 2-1 4-2c1 0 2-1 3-1c6-3 10-3 12-2l1-2c3 3 5 6 6 8c-2-1-4-1-9-1c-4 1-6 3-6 4c1 2 2 4 1 5c0-1-2-2-3-3c-1-1-3-2-4-3c-1-1-3-1-4-2c-3 0-6 1-7 1c-28 15-50 36-67 63c1 1 3 2 4 2c0 1 1 1 1 3c0 2 0 3 1 3c0 1 1 0 3-1c2 2 2 4 1 6c0 0 4 2 12 7c4 4 6 6 6 6c1 3 0 4-2 6c-1-1-1-2-3-3c-2-1-2-2-3-1c0 1 0 3 1 5c0 3 1 4 3 4c-2 0-3 1-3 4c-1 3-1 7-1 10c0 4 0 6 0 7l0 0c0 3 0 6 2 10c2 5 4 6 6 6c-2 0 0 5 6 12c1 2 2 3 2 3c1 0 2 1 4 2c1 1 3 2 4 3c1 1 2 2 3 3c0 1 1 3 3 6c1 3 2 6 4 7c-1 1 0 3 2 6c2 2 3 4 3 6c0 0 0 0 0 0c-1 1-1 1-1 1c0 1 2 2 4 4c3 1 4 2 5 3c0 1 0 2 0 3c0 2 1 3 1 3c1 1 1 1 2 1c1-4-1-10-6-18c-3-4-5-7-5-8c-1-1-1-2-2-4c0-2-1-4-1-5c0 0 1 1 2 1c0 0 1 0 2 1c1 0 2 1 2 1c1 0 1 1 1 1c-1 1-1 3 0 5c1 2 2 4 4 5c1 2 3 3 5 6c1 2 3 3 3 3c1 1 2 3 4 6c2 2 2 4 0 4c2 0 4 1 6 3c2 1 3 3 5 5c1 2 1 4 2 8c0 3 1 5 1 7c1 1 1 2 3 3c1 2 2 3 3 3l5 2c0 0 1 1 4 2c1 1 2 2 5 3c2 2 4 3 6 4c2 0 3 1 5 1c1 0 2 0 4-1c1 0 3-1 4-1c2 0 5 1 8 4c3 4 5 6 6 6c7 4 12 5 16 4c-1 0-1 0 0 2c0 1 1 2 2 4c1 2 2 3 3 4c0 1 1 2 1 3c1 1 3 2 5 4c3 2 4 3 5 4c2 0 2-1 2-2c0 1 1 3 2 5c2 3 4 4 6 3c2 0 4-3 4-9c-6 3-11 1-14-5c0 0-1-1-1-2c-1 0-1-1-1-2c-1-1-1-2-1-2c0-1 0-2 0-3c0 0 1 0 1 0c2 0 3-1 3-1c0-1 0-2 0-4c-1-2-1-3-1-4c-1-1-2-3-4-5c-1-3-3-4-3-5c-1 2-2 3-5 3c-2-1-3-1-4-3c0 0 0 1-1 2c0 0 0 1 0 1c-2 0-4 0-4 0c0 0 0-2 0-5c1-3 1-5 1-6c1-1 1-2 2-4c1-1 2-3 2-4c1-1 1-2 1-3c0-2 0-2-1-3c-1-1-3-1-5-1c-4 0-6 2-7 6c-1 0-1 1-1 3c-1 1-1 2-2 3c0 1-1 2-2 2c-2 1-4 1-7 1c-3 0-6-1-7-2c-2-1-5-4-6-8c-2-4-3-8-3-11c0-1 0-4 1-7c0-3 0-6 0-7c1-2 0-4-1-7c0-1 1-2 2-3c2-1 3-2 3-3c1 0 1 0 2 0c0-1 0-1 1 0c0 0 1 0 1-1c0 0 1-1 1-2c0 0-1 0-1 0c-1-1-1-1-1-1c1 0 4 0 8-1c4-1 6 0 8 1c2 2 5 2 6-1c0 0 0-1-1-3c0-1 0-2 0-3c1 5 4 6 8 2c1 1 2 1 5 2c2 0 4 0 5 1c0 0 1 1 2 2c0 0 1 1 1 1c1 0 1 0 2 0c0-1 1-1 2-2c2 3 3 5 4 7c2 7 3 12 5 12c1 1 2 1 3 1c1 0 1-1 1-3c1-1 1-3 0-4c0-1 0-2 0-3l0-3l0-5l-1-2c-2-1-4-2-5-4c-1-1 0-3 1-5c1-2 2-3 4-5c0 0 1-1 2-1c1-1 3-1 5-2c1-1 2-2 3-2c4-4 6-7 4-10c2 0 3-1 4-3c-1 0-1 0-2-1c-1 0-1-1-2-1c-1-1-1-1-1-1c1-1 2-2 0-4c1-1 2-2 2-3c1-2 2-3 3-3c1 2 3 2 6 0c1-1 1-3 0-4c1-2 3-3 6-3c3-1 4-2 5-3c1 0 2 0 2-1c0 0 1-1 1-3c0-2 0-3 0-3c1-1 3-2 5-3c2-1 3-1 3-1l5-4c1 0 1-1 0-1c4 1 7 0 9-3c2-2 1-4-2-6c1-1 1-2 0-2c-2-1-3-1-5-2c1 0 2 0 4 0c1 0 2 0 3 0c2-2 2-4-2-5c-4-1-8 0-13 3z m-46 251c39-7 72-25 100-54c-1-1-2-1-4-1c-1-1-3-1-3-1c-4-2-6-2-7-3c0-1 0-2-1-3c0-1-1-2-2-3c-1 0-2-1-4-2c-1-1-2-2-3-2c0-1-1-1-2-2c-1-1-1-1-2-1c0-1-1-1-2-2c-1 0-2 0-2 0c-1 0-2 0-3 0l-1 0c-1 0-1 1-2 1c0 0-1 1-1 1c-1 0-1 0-1 1c0 0 0 0 0 0c-4-3-8-5-11-6c-1 0-2-1-3-1c-1-1-2-2-3-2c-1-1-2-1-3-1c-1 0-2 1-3 2c-1 1-1 3-2 4c0 2 0 4 0 4c-1-1-1-2 0-5c1-2 1-4 0-5c0-1-1-2-3-1c-1 0-2 0-3 1c-1 0-2 1-3 2c-2 1-2 2-3 2c0 0-1 1-2 2c-2 1-2 1-3 2c0 1-1 2-1 3c-1 2-1 3-2 3c0 0-1-1-3-1c-2-1-3-1-3-2c1 2 1 5 1 10c1 5 1 8 2 11c1 6 0 10-4 14c-5 4-8 8-8 11c-1 4 0 7 3 7c0 2 0 4-2 6c-1 3-2 5-2 6c0 2 0 3 1 5z"/>
    </symbol>
  
    <symbol id="icon-map-pin-5" viewBox="0 0 512 512">
      <path d="m240 0c-70 0-176 32-176 160c0 64 141 288 176 352c35-64 176-288 176-352c0-128-106-160-176-160z m0 216c-31 0-56-25-56-56c0-31 25-56 56-56c31 0 56 25 56 56c0 31-25 56-56 56z"/>
    </symbol>
  
    <symbol id="icon-compass-2" viewBox="0 0 512 512">
      <path d="m0 258l256 0l0 254l1 0l255-510z"/>
    </symbol>
  
    <symbol id="icon-chevron-big-3-01" viewBox="0 0 512 512">
      <path d="m403 88l-42-48l-252 216l252 216l42-48l-196-168z"/>
    </symbol>
  
    <symbol id="icon-chevron-big-4-01" viewBox="0 0 512 512">
      <path d="m151 40l-42 48l196 168l-196 168l42 48l252-216z"/>
    </symbol>
  
    <symbol id="icon-check-15" viewBox="0 0 512 512">
      <path d="m505 242l-53-35l-2-7l28-56c3-5 3-11 0-16c-3-5-8-8-14-8l-63-4l-5-5l-4-63c0-6-3-11-8-14c-5-3-11-3-16 0l-57 28l-6-2l-35-53c-3-4-8-7-14-7l0 0c-6 0-11 3-14 7l-35 53l-6 2l-57-28c-5-3-11-3-16 0c-5 3-8 8-8 14l-4 63l-5 5l-63 4c-6 0-11 3-14 8c-2 5-3 11 0 16l28 57l-2 6l-53 35c-4 3-7 8-7 14c0 6 3 11 8 14l52 35l2 6l-28 57c-3 5-3 11 0 16c3 5 8 8 14 8l63 4l5 5l4 63c0 6 3 11 8 14c5 3 11 3 16 0l57-28l6 2l35 53c3 4 8 7 14 7c6 0 11-3 14-7l35-53l7-2l56 28c5 3 11 2 16 0c5-3 8-8 8-14l5-63l4-5l63-4c6 0 11-3 14-8c3-5 3-11 0-16l-28-57l2-6l53-35c4-3 7-8 7-14c0-6-3-11-7-14z m-126-30l-113 118l-36 36c-6 6-17 6-24 0l-35-36l-53-52c-6-7-6-17 0-24l24-24c7-6 17-6 24 0l52 53l114-118c6-7 17-7 23 0l24 24c7 6 7 17 0 23z"/>
    </symbol>
  
    <symbol id="icon-alarm-bell-2" viewBox="0 0 512 512">
      <path d="m384 288c0-58 0-169-97-189c0-1 1-2 1-3c0-18-14-32-32-32c-18 0-32 14-32 32c0 1 1 2 1 3c-97 20-97 131-97 189c0 64-64 96-64 96l0 32l384 0l0-32c0 0-64-32-64-96z m-160 192l64 0c18 0 32-14 32-32l-128 0c0 18 14 32 32 32z"/>
    </symbol>
  
    <symbol id="icon-medal-rank-star" viewBox="0 0 512 512">
      <path d="m256 0c-141 0-256 115-256 256c0 141 115 256 256 256c141 0 256-115 256-256c0-141-115-256-256-256z m119 421l-119-86l-119 86l46-139l-119-86l147 0l45-140l45 140l147 0l-119 86z"/>
    </symbol>
  
    <symbol id="icon-badge-medal" viewBox="0 0 512 512">
      <path d="m318 295l34 11c8 3 15-2 15-11l0-35c0-9 7-19 15-21l34-11c8-3 11-11 5-18l-20-29c-5-7-5-18 0-26l20-28c6-7 3-15-5-18l-34-11c-8-3-15-12-15-21l0-35c0-9-7-14-15-11l-34 11c-8 2-19-1-24-8l-21-29c-5-7-14-7-19 0l-21 29c-5 7-16 10-24 8l-34-11c-8-3-15 2-15 11l0 35c0 9-7 18-15 21l-34 11c-8 3-11 11-6 18l21 28c5 8 5 19 0 26l-21 29c-5 7-2 15 6 18l34 11c8 2 15 12 15 21l0 35c0 9 7 14 15 11l34-11c8-3 19 1 24 8l21 29c5 7 14 7 19 0l21-29c5-7 16-11 24-8z m-118 65l-9-14l-16 6c-6 2-13 3-19 3c-27 0-49-18-56-44l-100 105l96 0l0 96l125-134c-8-5-15-11-21-18z m200-62c-2 32-27 57-59 57c-6 0-13-1-19-3l-16-6l-9 14c-4 4-8 8-12 12l131 140l0-96l96 0z"/>
    </symbol>
  
    <symbol id="icon-honour-medal-star" viewBox="0 0 512 512">
      <path d="m370 166l37-57c5-7 9-20 9-29l0-64c0-9-7-16-16-16l-80 0l0 139c-10-3-21-6-32-8l0-131l-64 0l0 131c-11 2-22 5-32 8l0-139l-80 0c-9 0-16 7-16 16l0 64c0 9 4 22 9 29l37 57c-47 34-78 91-78 154c0 106 86 192 192 192c106 0 192-86 192-192c0-63-31-120-78-154z m-114 314c-88 0-160-72-160-160c0-88 72-160 160-160c88 0 160 72 160 160c0 88-72 160-160 160z m30-195l-30-93l-30 93l-98 0l79 57l-30 93l79-57l79 57l-30-93l79-57z"/>
    </symbol>
  
</svg>
