<svg xmlns="http://www.w3.org/2000/svg" xmlns:xlink="http://www.w3.org/1999/xlink" width="0" height="0" style="position:absolute">

<symbol id="svg-android-mail" viewBox="0 0 512 512">
        <path d="M437.332 80H74.668C51.198 80 32 99.198 32 122.667v266.666C32 412.803 51.2 432 74.668 432h362.664c23.47 0 42.668-19.198 42.668-42.667V122.667C480 99.197 460.8 80 437.332 80zM432 170.667L256 288 80 170.667V128l176 117.333L432 128v42.667z"/>
</symbol>

<symbol id="svg-cfm-bubble" viewBox="0 0 250 320">
        <path d="M0 314.853c0 5.948 3.185 6.74 6.768 2.38l48.964-59.88c3.583-4.36 11.545-8.326 17.516-8.326h166.004c5.97 0 10.748-4.758 10.748-10.707V10.707C250 4.757 245.223 0 239.252 0H10.748C4.778 0 0 4.758 0 10.707v304.146z" fill-rule="evenodd"/>
</symbol>

<symbol id="svg-cfm-logo" viewBox="0 0 320 290">
        <path d="M81.45 258.3c-.67 22.993-16.96 31.7-37.043 31.7C17.852 290 0 275.266 0 245.35c0-29.915 21.423-44.426 44.407-44.426 19.19 0 37.043 9.376 37.043 29.022 0 9.377-5.8 17.637-15.843 17.637-8.48 0-15.62-3.572-15.62-12.95 0-8.26 5.8-12.947 13.834-12.947-3.122-4.02-8.7-6.028-14.28-6.028-9.15 0-17.63 9.153-17.63 29.692 0 20.54 5.134 29.692 17.63 29.692 9.373 0 13.613-8.037 14.506-16.297H81.45v-.446zm18.968-52.688v-4.242c0-25.45 10.935-36.39 33.696-36.39 12.497 0 29.456 4.69 29.456 19.647 0 6.697-5.355 13.84-12.273 13.84-6.694 0-12.496-4.687-12.496-11.83 0-4.69 2.903-8.038 7.14-8.485v-.446c-2.23-.447-4.237-.893-6.692-.893-8.48 0-9.373 7.367-9.373 14.734v14.065h14.952V219.9h-14.952v45.32c0 4.91 1.34 7.59 6.472 7.59h7.364v14.288H86.138V272.81h7.587c5.132 0 6.47-2.68 6.47-7.59V219.9H87.03v-14.288h13.388zm97.518-2.01v14.29h.446c6.695-11.164 16.067-16.968 29.233-16.968 11.158 0 20.084 5.135 24.324 15.85 6.246-9.822 16.51-15.85 28.34-15.85 18.52 0 27.222 9.376 27.222 26.343v38.176c0 4.91 1.34 7.59 6.472 7.59H320v14.288h-51.325v-14.286h2.678c5.132 0 6.47-2.68 6.47-7.59v-32.818c0-6.25-3.123-15.404-11.156-15.404-9.596 0-12.943 5.582-12.943 13.396v38.175c0 3.35.892 4.02 6.47 4.02h2.233V287.1H215.12v-14.29h2.453c5.133 0 6.472-2.233 6.472-7.59V232.4c0-8.93-1.116-15.404-11.38-15.404-9.597 0-12.944 7.59-12.944 16.074v35.72c0 2.455 1.34 4.018 6.473 4.018h2.9v14.288h-53.11V272.81h7.588c5.134 0 6.473-2.68 6.473-7.59v-39.74c0-4.91-1.34-7.59-6.472-7.59h-7.14v-14.287h41.507zM177.63 178.6l27.447-33.712c2.008-2.455 6.47-4.688 9.818-4.688h93.055c3.347 0 6.025-2.68 6.025-6.028V6.028c0-3.35-2.678-6.028-6.025-6.028H179.86c-3.347 0-6.025 2.68-6.025 6.028v171.23c0 3.35 1.786 3.797 3.794 1.34z" fill-rule="evenodd"/>
</symbol>

<symbol id="svg-cfm-logo-text" viewBox="0 0 300 310">
        <g fill-rule="evenodd"><path d="M76.36 243.157C75.732 264.804 60.46 273 41.632 273 16.736 273 0 259.13 0 230.968s20.084-41.823 41.632-41.823c17.99 0 34.728 8.827 34.728 27.322 0 8.826-5.44 16.602-14.854 16.602-7.95 0-14.644-3.364-14.644-12.19 0-7.777 5.44-12.19 12.97-12.19-2.928-3.783-8.158-5.675-13.388-5.675-8.578 0-16.528 8.617-16.528 27.952s4.812 27.95 16.528 27.95c8.786 0 12.76-7.565 13.598-15.34H76.36v-.42zm17.782-49.598v-3.995c0-23.96 10.25-34.257 31.59-34.257 11.716 0 27.615 4.413 27.615 18.494 0 6.305-5.02 13.03-11.506 13.03-6.274 0-11.713-4.414-11.713-11.14 0-4.412 2.72-7.565 6.694-7.985v-.42c-2.09-.422-3.974-.842-6.275-.842-7.95 0-8.787 6.935-8.787 13.87v13.24h14.017v13.45h-14.017v42.664c0 4.623 1.256 7.145 6.067 7.145h6.904v13.45H80.752v-13.45h7.113c4.812 0 6.067-2.522 6.067-7.146v-42.66H81.59v-13.45h12.552zm91.423-1.894v13.45h.418c6.276-10.507 15.063-15.972 27.406-15.972 10.46 0 18.827 4.834 22.8 14.922 5.86-9.247 15.483-14.922 26.57-14.922 17.365 0 25.524 8.827 25.524 24.8v35.937c0 4.625 1.255 7.147 6.066 7.147H300v13.45h-48.117v-13.45h2.51c4.812 0 6.067-2.522 6.067-7.146v-30.893c0-5.884-2.93-14.5-10.46-14.5-8.996 0-12.134 5.253-12.134 12.61v35.937c0 3.152.837 3.783 6.067 3.783h2.092v13.45h-44.35v-13.45h2.3c4.812 0 6.067-2.102 6.067-7.146v-30.893c0-8.406-1.046-14.5-10.67-14.5-8.995 0-12.134 7.145-12.134 15.13v33.627c0 2.31 1.256 3.783 6.067 3.783h2.72v13.45h-49.79v-13.45h7.112c4.812 0 6.067-2.522 6.067-7.146v-37.41c0-4.62-1.255-7.143-6.067-7.143h-6.694v-13.45h38.912zm-22.594-24.8c0 3.154 1.675 3.574 3.558 1.262l25.732-31.735c1.882-2.312 6.066-4.413 9.204-4.413h87.24c3.137 0 5.647-2.522 5.647-5.675V5.675c0-3.153-2.51-5.675-5.646-5.675H168.62c-3.14 0-5.65 2.522-5.65 5.674v161.194zM12.085 299.3c-.387 3.8-2.61 5.2-6.187 5.2-3.384 0-5.898-2.3-5.898-7 0-4.1 2.9-7 6.67-7 2.418 0 5.512 1.3 5.512 4.2 0 1.1-.677 1.9-1.74 1.9-.677 0-1.354-.6-1.354-1.3 0-1 .483-1.5 1.354-1.6-.387-1.4-2.224-1.9-3.48-1.9-3.385 0-4.545 3.1-4.545 5.6 0 2.6 1.064 5.6 4.06 5.6 2.128 0 3.48-1.5 3.965-3.9h1.643v.2zm6.38-6c1.064-1.6 2.708-2.7 4.835-2.7 2.804 0 4.35 1.9 4.35 4.8v6.1c0 .9.194 1.3 1.064 1.3h1.644v1.3h-7.54v-1.3h1.45c.87 0 1.062-.4 1.062-1.3v-6.3c0-1.9-.676-3.1-2.803-3.1-2.61 0-4.06 2.1-4.06 4.4v5c0 .9.192 1.3 1.062 1.3h1.642v1.3h-7.83v-1.3h1.74c.87 0 1.063-.4 1.063-1.3v-13.3c0-.9-.194-1.3-1.064-1.3h-1.74v-1.3h5.125v7.7zm17.984 8.2c0 .9.19 1.3 1.06 1.3h1.74v1.3h-7.926v-1.3h1.74c.87 0 1.063-.4 1.063-1.3v-7.9c0-.9-.193-1.3-1.063-1.3h-1.74V291h5.124v10.5zm-1.55-13.2c-.774 0-1.45-.7-1.45-1.5s.676-1.5 1.45-1.5c.773 0 1.45.7 1.45 1.5.097.9-.58 1.5-1.45 1.5zm16.92 11c-.388 3.8-2.612 5.2-6.19 5.2-3.383 0-5.896-2.3-5.896-7 0-4.1 2.9-7 6.67-7 2.418 0 5.51 1.3 5.51 4.2 0 1.1-.675 1.9-1.74 1.9-.676 0-1.352-.6-1.352-1.3 0-1 .483-1.5 1.353-1.6-.386-1.4-2.223-1.9-3.48-1.9-3.384 0-4.544 3.1-4.544 5.6 0 2.6 1.064 5.6 4.06 5.6 2.128 0 3.48-1.5 3.965-3.9h1.644v.2zm12.567 2.4c0 .8.193 1.5.676 1.5 1.16 0 1.257-1.6 1.257-2.4v-1.2h1.257v.8c0 3-.967 4.1-2.997 4.1-1.354 0-2.127-.8-2.417-2.2-1.354 1.5-2.804 2.2-4.738 2.2-2.223 0-3.964-1-3.964-3.5 0-3.6 4.835-3.6 7.64-4.9.87-.4 1.063-1 1.063-1.8 0-1.6-.677-2.4-2.997-2.4-1.065 0-2.418.2-3.192 1.1.774.1 1.257.6 1.257 1.4 0 1.1-.87 1.5-1.643 1.5-.965 0-1.45-.9-1.45-2 0-2.4 3.095-3.3 5.125-3.3 3.094 0 5.124.9 5.124 4.6v6.5zm-2.224-4.7c-1.16.7-2.417 1-3.964 1.7-1.45.6-2.03 1.3-2.03 2.2 0 1.5.772 2.3 2.125 2.3 1.74 0 3.964-1.7 3.964-3.7V297h-.097zm14.695 5.5c4.062 0 5.61 1.2 5.61 3.5 0 2.6-2.515 4-7.252 4-4.35 0-6.865-1-6.865-3.2 0-1.8 1.45-2.4 2.805-2.5-1.257 0-2.32-.9-2.32-2.3s1.16-2.5 2.417-2.7c-1.354-.8-1.934-2.3-1.934-3.9 0-3.4 2.997-4.8 5.898-4.8 1.546 0 3.093.6 4.35 1.6.677-.9 1.644-1.6 2.804-1.6 1.45 0 2.61.9 2.61 2.5 0 1.1-.483 1.8-1.547 1.8-.773 0-1.256-.6-1.256-1.3 0-.8.58-1.2 1.255-1.2-.193-.4-.676-.4-1.16-.4-.773 0-1.547.6-2.03 1.1.387.8.773 1.8.773 3 0 2.2-2.223 4.5-5.704 4.5-2.222 0-2.512-.5-2.996-.5-.773 0-1.45.7-1.45 1.4 0 .8.773 1.1 1.547 1.1h4.448v-.1zm-3.19 2.1c-1.546 0-3.19.7-3.19 2 0 1.8 2.417 2.2 5.124 2.2s4.93-.7 4.93-2.1c0-1.5-.966-2-2.706-2H73.67v-.1zm-1.74-9c0 2.2.967 3.6 3.288 3.6 2.32 0 3.287-1.5 3.287-3.6 0-2.2-.967-3.7-3.287-3.7s-3.288 1.5-3.288 3.7zm27.65 2c0 4-2.61 7-6.96 7s-6.96-2.9-6.96-7c0-4 2.61-7 6.96-7s6.96 2.9 6.96 7zm-11.31 0c0 3 1.063 5.6 4.447 5.6 3.384 0 4.447-2.6 4.447-5.6 0-3-1.063-5.6-4.447-5.6-3.48-.1-4.448 2.5-4.448 5.6zm26.007-5.3v9.2c0 .9.676 1.3 1.546 1.3h1.355v1.3h-8.12v-1.3h1.836c.87 0 1.064-.4 1.064-1.3v-9.2h-2.9V291h2.9v-1.9c0-3 2.127-4.1 4.157-4.1 1.548 0 3.965.6 3.965 2.9 0 1-.676 1.6-1.643 1.6-1.064 0-1.45-.6-1.45-1.4 0-.7.483-1 1.063-1.1-.387-.6-1.353-.8-1.934-.8-1.062 0-1.932 1-1.932 2.5v2.2h2.997v1.3h-2.9v.1zm18.95 5.3c0 4-2.61 7-6.962 7-4.35 0-6.96-2.9-6.96-7 0-4 2.61-7 6.96-7s6.96 2.9 6.96 7zm-11.41 0c0 3 1.064 5.6 4.448 5.6 3.384 0 4.447-2.6 4.447-5.6 0-3-1.063-5.6-4.447-5.6-3.384-.1-4.447 2.5-4.447 5.6zm26.78 0c0 4-2.61 7-6.96 7s-6.96-2.9-6.96-7c0-4 2.61-7 6.96-7s6.96 2.9 6.96 7zm-11.407 0c0 3 1.063 5.6 4.447 5.6 3.384 0 4.447-2.6 4.447-5.6 0-3-1.063-5.6-4.447-5.6-3.384-.1-4.447 2.5-4.447 5.6zm23.397 4c-1.064 1.9-2.127 2.9-4.544 2.9-4.06 0-5.8-3.6-5.8-7s1.74-7 5.8-7c1.74 0 3.578 1 4.448 2.8h.097v-4.9c0-.9-.387-1.6-1.257-1.6h-1.45v-1.3h4.93v16.2c0 .7.387 1 .967 1h1.547v1.3h-4.834v-2.4h.097zm-7.735-4c0 3.2 1.064 5.4 3.577 5.4 3.093 0 4.157-2.6 4.157-5.4 0-2.8-1.064-5.4-3.868-5.4s-3.868 2.6-3.868 5.4zm27.36-4.2c1.16-1.8 2.224-2.8 4.448-2.8 1.837 0 3.094 1.1 3.577 2.8 1.257-1.8 2.514-2.8 4.544-2.8 3.674 0 4.06 2.5 4.06 6.1v4.8c0 .9.194 1.3 1.064 1.3h1.547v1.3h-7.25v-1.3h1.257c.87 0 1.063-.4 1.063-1.3v-6.8c0-1.7-.965-2.5-2.416-2.5-2.03 0-3.673 2.2-3.673 4v5.3c0 .9.195 1.3 1.065 1.3h1.257v1.3h-6.96v-1.3h1.257c.87 0 1.062-.4 1.062-1.3V295c0-1.7-.87-2.9-2.417-2.9-2.03 0-3.577 2.3-3.577 4v5.3c0 .9.193 1.3 1.064 1.3h1.256v1.3h-7.444v-1.3h1.74c.87 0 1.064-.4 1.064-1.3v-7.9c0-.9-.194-1.3-1.064-1.3h-1.74v-1.3h5.124v2.5h.097zm31.325 8.3c0 .8.194 1.5.677 1.5 1.16 0 1.257-1.6 1.257-2.4v-1.2h1.257v.8c0 3-.967 4.1-2.997 4.1-1.353 0-2.126-.8-2.416-2.2-1.354 1.5-2.804 2.2-4.738 2.2-2.223 0-3.964-1-3.964-3.5 0-3.6 4.834-3.6 7.638-4.9.87-.4 1.064-1 1.064-1.8 0-1.6-.677-2.4-2.998-2.4-1.063 0-2.417.2-3.19 1.1.773.1 1.257.6 1.257 1.4 0 1.1-.87 1.5-1.644 1.5-.97 0-1.45-.9-1.45-2 0-2.4 3.092-3.3 5.122-3.3 3.094 0 5.124.9 5.124 4.6v6.5zm-2.223-4.7c-1.16.7-2.417 1-3.964 1.7-1.45.6-2.03 1.3-2.03 2.2 0 1.5.773 2.3 2.126 2.3 1.74 0 3.964-1.7 3.964-3.7V297h-.096zm14.888 5.5c4.06 0 5.608 1.2 5.608 3.5 0 2.6-2.514 4-7.25 4-4.352 0-6.866-1-6.866-3.2 0-1.8 1.45-2.4 2.804-2.5-1.257 0-2.32-.9-2.32-2.3s1.16-2.5 2.417-2.7c-1.354-.8-1.934-2.3-1.934-3.9 0-3.4 2.997-4.8 5.9-4.8 1.545 0 3.092.6 4.35 1.6.675-.9 1.642-1.6 2.802-1.6 1.45 0 2.61.9 2.61 2.5 0 1.1-.483 1.8-1.546 1.8-.774 0-1.257-.6-1.257-1.3 0-.8.58-1.2 1.256-1.2-.194-.4-.677-.4-1.16-.4-.774 0-1.547.6-2.03 1.1.386.8.773 1.8.773 3 0 2.2-2.225 4.5-5.706 4.5-2.223 0-2.513-.5-2.997-.5-.773 0-1.45.7-1.45 1.4 0 .8.774 1.1 1.547 1.1h4.447v-.1zm-3.287 2.1c-1.643 0-3.19.7-3.19 2 0 1.8 2.417 2.2 5.124 2.2 2.706 0 4.93-.7 4.93-2.1 0-1.5-.967-2-2.707-2h-4.158v-.1zm-1.74-9c0 2.2.967 3.6 3.287 3.6s3.287-1.5 3.287-3.6c0-2.2-.968-3.7-3.288-3.7s-3.288 1.5-3.288 3.7zm24.75 6.1c0 .8.194 1.5.677 1.5 1.16 0 1.257-1.6 1.257-2.4v-1.2h1.256v.8c0 3-.967 4.1-2.997 4.1-1.355 0-2.128-.8-2.418-2.2-1.354 1.5-2.804 2.2-4.738 2.2-2.223 0-3.964-1-3.964-3.5 0-3.6 4.834-3.6 7.638-4.9.87-.4 1.064-1 1.064-1.8 0-1.6-.677-2.4-2.998-2.4-1.063 0-2.417.2-3.19 1.1.773.1 1.257.6 1.257 1.4 0 1.1-.87 1.5-1.643 1.5-.967 0-1.45-.9-1.45-2 0-2.4 3.094-3.3 5.124-3.3 3.095 0 5.125.9 5.125 4.6v6.5zm-2.32-4.7c-1.16.7-2.417 1-3.964 1.7-1.45.6-2.03 1.3-2.03 2.2 0 1.5.773 2.3 2.127 2.3 1.74 0 3.964-1.7 3.964-3.7V297h-.096zm6.478 7.1v-1.3l8.798-10.5h-4.447c-1.932 0-2.513 1.3-2.61 4.1h-1.256v-5.5h11.118v1.3l-8.894 10.5h4.64c2.61 0 2.997-1 3.19-4.6h1.258v5.9H248.08v.1zm18.66-2.6c0 .9.193 1.3 1.063 1.3h1.74v1.3h-7.927v-1.3h1.74c.87 0 1.064-.4 1.064-1.3v-7.9c0-.9-.194-1.3-1.064-1.3h-1.74V291h5.124v10.5zm-1.547-13.2c-.773 0-1.45-.7-1.45-1.5s.677-1.5 1.45-1.5c.773 0 1.45.7 1.45 1.5 0 .9-.58 1.5-1.45 1.5zm10.538 5.1c1.16-1.8 2.805-2.8 4.835-2.8 2.804 0 4.35 1.9 4.35 4.8v6.1c0 .9.194 1.3 1.064 1.3h1.644v1.3h-7.54v-1.3h1.45c.87 0 1.062-.4 1.062-1.3v-6.3c0-1.9-.676-3.1-2.803-3.1-2.61 0-4.06 2.1-4.06 4.4v5c0 .9.193 1.3 1.063 1.3h1.643v1.3h-7.83v-1.3h1.74c.87 0 1.062-.4 1.062-1.3v-7.9c0-.9-.194-1.3-1.064-1.3h-1.74V291h5.123v2.4zm14.503 4.3c0 2.8.58 5.5 3.77 5.5 2.128 0 3.48-1.2 4.06-3.4h1.548c-.58 3-2.416 4.7-5.606 4.7-3.964 0-6.284-2.4-6.284-7s2.32-7 6.284-7c4.35 0 5.8 3.2 5.994 7.1h-9.765v.1zm7.155-1.3c0-2.4-1.064-4.5-3.48-4.5-2.515 0-3.675 2.1-3.675 4.5h7.155z"/></g>
</symbol>

<symbol id="svg-cfm-text" viewBox="0 0 300 25">
        <path d="M12.085 14.3c-.387 3.8-2.61 5.2-6.187 5.2C2.514 19.5 0 17.2 0 12.5c0-4.1 2.9-7 6.67-7 2.418 0 5.512 1.3 5.512 4.2 0 1.1-.677 1.9-1.74 1.9-.677 0-1.354-.6-1.354-1.3 0-1 .483-1.5 1.354-1.6-.387-1.4-2.224-1.9-3.48-1.9-3.385 0-4.545 3.1-4.545 5.6 0 2.6 1.064 5.6 4.06 5.6 2.128 0 3.48-1.5 3.965-3.9h1.643v.2zm6.38-6c1.064-1.6 2.708-2.7 4.835-2.7 2.804 0 4.35 1.9 4.35 4.8v6.1c0 .9.194 1.3 1.064 1.3h1.644v1.3h-7.54v-1.3h1.45c.87 0 1.062-.4 1.062-1.3v-6.3c0-1.9-.676-3.1-2.803-3.1-2.61 0-4.06 2.1-4.06 4.4v5c0 .9.192 1.3 1.062 1.3h1.642v1.3h-7.83v-1.3h1.74c.87 0 1.063-.4 1.063-1.3V3.2c0-.9-.194-1.3-1.064-1.3h-1.74V.6h5.125v7.7zm17.984 8.2c0 .9.19 1.3 1.06 1.3h1.74v1.3h-7.926v-1.3h1.74c.87 0 1.063-.4 1.063-1.3V8.6c0-.9-.193-1.3-1.063-1.3h-1.74V6h5.124v10.5zM34.9 3.3c-.774 0-1.45-.7-1.45-1.5S34.127.3 34.9.3c.773 0 1.45.7 1.45 1.5.097.9-.58 1.5-1.45 1.5zm16.92 11c-.388 3.8-2.612 5.2-6.19 5.2-3.383 0-5.896-2.3-5.896-7 0-4.1 2.9-7 6.67-7 2.418 0 5.51 1.3 5.51 4.2 0 1.1-.675 1.9-1.74 1.9-.676 0-1.352-.6-1.352-1.3 0-1 .483-1.5 1.353-1.6-.386-1.4-2.223-1.9-3.48-1.9-3.384 0-4.544 3.1-4.544 5.6 0 2.6 1.064 5.6 4.06 5.6 2.128 0 3.48-1.5 3.965-3.9h1.644v.2zm12.567 2.4c0 .8.193 1.5.676 1.5 1.16 0 1.257-1.6 1.257-2.4v-1.2h1.257v.8c0 3-.967 4.1-2.997 4.1-1.354 0-2.127-.8-2.417-2.2-1.354 1.5-2.804 2.2-4.738 2.2-2.223 0-3.964-1-3.964-3.5 0-3.6 4.835-3.6 7.64-4.9.87-.4 1.063-1 1.063-1.8 0-1.6-.677-2.4-2.997-2.4-1.065 0-2.418.2-3.192 1.1.774.1 1.257.6 1.257 1.4 0 1.1-.87 1.5-1.643 1.5-.965 0-1.45-.9-1.45-2 0-2.4 3.095-3.3 5.125-3.3 3.094 0 5.124.9 5.124 4.6v6.5zM62.165 12c-1.16.7-2.417 1-3.964 1.7-1.45.6-2.03 1.3-2.03 2.2 0 1.5.774 2.3 2.127 2.3 1.74 0 3.964-1.7 3.964-3.7V12h-.095zm14.695 5.5c4.062 0 5.61 1.2 5.61 3.5 0 2.6-2.515 4-7.252 4-4.35 0-6.865-1-6.865-3.2 0-1.8 1.45-2.4 2.804-2.5-1.257 0-2.32-.9-2.32-2.3s1.16-2.5 2.417-2.7c-1.354-.8-1.934-2.3-1.934-3.9 0-3.4 2.997-4.8 5.898-4.8 1.546 0 3.093.6 4.35 1.6.677-.9 1.644-1.6 2.804-1.6 1.45 0 2.61.9 2.61 2.5 0 1.1-.483 1.8-1.547 1.8-.773 0-1.256-.6-1.256-1.3 0-.8.58-1.2 1.254-1.2-.193-.4-.676-.4-1.16-.4-.773 0-1.547.6-2.03 1.1.387.8.773 1.8.773 3 0 2.2-2.223 4.5-5.704 4.5-2.223 0-2.513-.5-2.997-.5-.773 0-1.45.7-1.45 1.4 0 .8.773 1.1 1.547 1.1h4.447v-.1zm-3.19 2.1c-1.546 0-3.19.7-3.19 2 0 1.8 2.417 2.2 5.124 2.2s4.93-.7 4.93-2.1c0-1.5-.966-2-2.706-2H73.67v-.1zm-1.74-9c0 2.2.967 3.6 3.288 3.6 2.32 0 3.287-1.5 3.287-3.6 0-2.2-.967-3.7-3.287-3.7s-3.288 1.5-3.288 3.7zm27.65 2c0 4-2.61 7-6.96 7s-6.96-2.9-6.96-7c0-4 2.61-7 6.96-7s6.96 2.9 6.96 7zm-11.31 0c0 3 1.063 5.6 4.447 5.6 3.384 0 4.447-2.6 4.447-5.6 0-3-1.063-5.6-4.447-5.6-3.48-.1-4.448 2.5-4.448 5.6zm26.007-5.3v9.2c0 .9.676 1.3 1.546 1.3h1.354v1.3h-8.12v-1.3h1.836c.87 0 1.063-.4 1.063-1.3V7.3h-2.9V6h2.9V4.1c0-3 2.127-4.1 4.157-4.1 1.547 0 3.964.6 3.964 2.9 0 1-.676 1.6-1.643 1.6-1.064 0-1.45-.6-1.45-1.4 0-.7.483-1 1.063-1.1-.387-.6-1.353-.8-1.934-.8-1.063 0-1.933 1-1.933 2.5v2.2h2.997v1.3h-2.9v.1zm18.95 5.3c0 4-2.61 7-6.962 7-4.35 0-6.96-2.9-6.96-7 0-4 2.61-7 6.96-7s6.96 2.9 6.96 7zm-11.41 0c0 3 1.064 5.6 4.448 5.6 3.384 0 4.447-2.6 4.447-5.6 0-3-1.063-5.6-4.447-5.6-3.384-.1-4.447 2.5-4.447 5.6zm26.78 0c0 4-2.61 7-6.96 7s-6.96-2.9-6.96-7c0-4 2.61-7 6.96-7s6.96 2.9 6.96 7zm-11.407 0c0 3 1.063 5.6 4.447 5.6 3.384 0 4.447-2.6 4.447-5.6 0-3-1.063-5.6-4.447-5.6-3.384-.1-4.447 2.5-4.447 5.6zm23.397 4c-1.064 1.9-2.127 2.9-4.544 2.9-4.06 0-5.8-3.6-5.8-7s1.74-7 5.8-7c1.74 0 3.577 1 4.447 2.8h.097V3.4c0-.9-.387-1.6-1.257-1.6h-1.45V.5h4.93v16.2c0 .7.387 1 .967 1h1.547V19h-4.834v-2.4h.097zm-7.735-4c0 3.2 1.064 5.4 3.577 5.4 3.092 0 4.156-2.6 4.156-5.4 0-2.8-1.064-5.4-3.868-5.4s-3.868 2.6-3.868 5.4zm27.36-4.2c1.16-1.8 2.224-2.8 4.448-2.8 1.837 0 3.094 1.1 3.577 2.8 1.257-1.8 2.514-2.8 4.544-2.8 3.676 0 4.063 2.5 4.063 6.1v4.8c0 .9.193 1.3 1.063 1.3h1.547v1.3h-7.25v-1.3h1.256c.87 0 1.062-.4 1.062-1.3V9.7c0-1.7-.965-2.5-2.416-2.5-2.03 0-3.673 2.2-3.673 4v5.3c0 .9.194 1.3 1.064 1.3h1.257v1.3h-6.96v-1.3h1.257c.87 0 1.064-.4 1.064-1.3V10c0-1.7-.87-2.9-2.417-2.9-2.03 0-3.577 2.3-3.577 4v5.3c0 .9.193 1.3 1.064 1.3h1.256V19h-7.444v-1.3h1.74c.87 0 1.064-.4 1.064-1.3V8.5c0-.9-.194-1.3-1.064-1.3h-1.74V5.9h5.124v2.5h.097zm31.325 8.3c0 .8.194 1.5.677 1.5 1.16 0 1.257-1.6 1.257-2.4v-1.2h1.26v.8c0 3-.968 4.1-2.998 4.1-1.353 0-2.126-.8-2.416-2.2-1.354 1.5-2.804 2.2-4.738 2.2-2.223 0-3.964-1-3.964-3.5 0-3.6 4.834-3.6 7.638-4.9.87-.4 1.064-1 1.064-1.8 0-1.6-.677-2.4-2.998-2.4-1.063 0-2.417.2-3.19 1.1.773.1 1.257.6 1.257 1.4 0 1.1-.87 1.5-1.644 1.5-.967 0-1.45-.9-1.45-2 0-2.4 3.094-3.3 5.124-3.3 3.094 0 5.124.9 5.124 4.6v6.5zm-2.223-4.7c-1.16.7-2.417 1-3.964 1.7-1.45.6-2.03 1.3-2.03 2.2 0 1.5.773 2.3 2.126 2.3 1.74 0 3.964-1.7 3.964-3.7V12h-.096zm14.888 5.5c4.06 0 5.608 1.2 5.608 3.5 0 2.6-2.514 4-7.25 4-4.352 0-6.866-1-6.866-3.2 0-1.8 1.45-2.4 2.804-2.5-1.257 0-2.32-.9-2.32-2.3s1.16-2.5 2.417-2.7c-1.354-.8-1.934-2.3-1.934-3.9 0-3.4 3-4.8 5.9-4.8 1.547 0 3.094.6 4.35 1.6.677-.9 1.644-1.6 2.804-1.6 1.45 0 2.61.9 2.61 2.5 0 1.1-.483 1.8-1.546 1.8-.774 0-1.257-.6-1.257-1.3 0-.8.58-1.2 1.258-1.2-.194-.4-.677-.4-1.16-.4-.774 0-1.547.6-2.03 1.1.386.8.773 1.8.773 3 0 2.2-2.223 4.5-5.704 4.5-2.223 0-2.513-.5-2.997-.5-.774 0-1.45.7-1.45 1.4 0 .8.773 1.1 1.546 1.1h4.447v-.1zm-3.287 2.1c-1.643 0-3.19.7-3.19 2 0 1.8 2.417 2.2 5.124 2.2 2.705 0 4.93-.7 4.93-2.1 0-1.5-.968-2-2.708-2h-4.158v-.1zm-1.74-9c0 2.2.967 3.6 3.287 3.6s3.287-1.5 3.287-3.6c0-2.2-.97-3.7-3.29-3.7s-3.286 1.5-3.286 3.7zm24.75 6.1c0 .8.194 1.5.677 1.5 1.16 0 1.257-1.6 1.257-2.4v-1.2h1.255v.8c0 3-.967 4.1-2.997 4.1-1.355 0-2.128-.8-2.418-2.2-1.354 1.5-2.804 2.2-4.738 2.2-2.223 0-3.964-1-3.964-3.5 0-3.6 4.834-3.6 7.638-4.9.87-.4 1.064-1 1.064-1.8 0-1.6-.677-2.4-2.998-2.4-1.063 0-2.417.2-3.19 1.1.773.1 1.257.6 1.257 1.4 0 1.1-.87 1.5-1.644 1.5-.967 0-1.45-.9-1.45-2 0-2.4 3.094-3.3 5.124-3.3 3.095 0 5.125.9 5.125 4.6v6.5zm-2.32-4.7c-1.16.7-2.417 1-3.964 1.7-1.45.6-2.03 1.3-2.03 2.2 0 1.5.775 2.3 2.13 2.3 1.74 0 3.963-1.7 3.963-3.7V12h-.097zm6.478 7.1v-1.3l8.797-10.5h-4.447c-1.933 0-2.514 1.3-2.61 4.1h-1.257V5.9h11.118v1.3l-8.894 10.5h4.64c2.61 0 2.997-1 3.19-4.6h1.258V19h-11.795v.1zm18.66-2.6c0 .9.192 1.3 1.062 1.3h1.74v1.3h-7.927v-1.3h1.74c.87 0 1.064-.4 1.064-1.3V8.6c0-.9-.194-1.3-1.064-1.3h-1.74V6h5.124v10.5zm-1.548-13.2c-.773 0-1.45-.7-1.45-1.5s.677-1.5 1.45-1.5c.773 0 1.45.7 1.45 1.5 0 .9-.58 1.5-1.45 1.5zm10.538 5.1c1.16-1.8 2.804-2.8 4.834-2.8 2.804 0 4.35 1.9 4.35 4.8v6.1c0 .9.194 1.3 1.064 1.3h1.646v1.3h-7.54v-1.3h1.45c.87 0 1.062-.4 1.062-1.3v-6.3c0-1.9-.676-3.1-2.803-3.1-2.61 0-4.06 2.1-4.06 4.4v5c0 .9.193 1.3 1.063 1.3h1.643v1.3h-7.83v-1.3h1.74c.87 0 1.064-.4 1.064-1.3V8.6c0-.9-.194-1.3-1.064-1.3h-1.74V6h5.123v2.4zm14.502 4.3c0 2.8.58 5.5 3.77 5.5 2.128 0 3.48-1.2 4.06-3.4h1.548c-.58 3-2.417 4.7-5.607 4.7-3.964 0-6.284-2.4-6.284-7s2.32-7 6.284-7c4.35 0 5.8 3.2 5.994 7.1h-9.765v.1zm7.155-1.3c0-2.4-1.064-4.5-3.48-4.5-2.515 0-3.675 2.1-3.675 4.5h7.155z" fill-rule="evenodd"/>
</symbol>

<symbol id="svg-facebook" viewBox="0 0 512 512">
        <path d="M288 192v-38.1c0-17.2 3.8-25.9 30.5-25.9H352V64h-55.9c-68.5 0-91.1 31.4-91.1 85.3V192h-45v64h45v192h83V256h56.4l7.6-64h-64z"/>
</symbol>

<symbol id="svg-instagram" viewBox="0 0 512 512">
        <path d="M448.5 112c0-26.233-21.267-47.5-47.5-47.5H112c-26.233 0-47.5 21.267-47.5 47.5v289c0 26.233 21.267 47.5 47.5 47.5h289c26.233 0 47.5-21.267 47.5-47.5V112zM257 175.833c44.182 0 80 35.816 80 80s-35.818 80-80 80-80-35.816-80-80 35.818-80 80-80zM416.5 160.5c0 8.836-7.163 16-16 16h-48c-8.837 0-16-7.164-16-16v-48c0-8.836 7.163-16 16-16h48c8.837 0 16 7.164 16 16v48zm-15 256h-288c-8.822 0-17-8.178-17-17v-175h53.072c-3.008 10-4.572 20.647-4.572 31.583 0 29.917 11.65 57.917 32.805 79.07s49.28 32.742 79.195 32.742 58.04-11.68 79.195-32.835S369 286.016 369 256.1c0-10.937-1.563-21.6-4.572-31.6H416.5v175c0 8.822-6.178 17-15 17z"/>
</symbol>

<symbol id="svg-pinterest" viewBox="0 0 512 512">
        <path d="M256 32C132.3 32 32 132.3 32 256c0 91.7 55.2 170.5 134.1 205.2-.6-15.6-.1-34.4 3.9-51.4 4.3-18.2 28.8-122.1 28.8-122.1s-7.2-14.3-7.2-35.4c0-33.2 19.2-58 43.2-58 20.4 0 30.2 15.3 30.2 33.6 0 20.5-13.1 51.1-19.8 79.5-5.6 23.8 11.9 43.1 35.4 43.1 42.4 0 71-54.5 71-119.1 0-49.1-33.1-85.8-93.2-85.8-67.9 0-110.3 50.7-110.3 107.3 0 19.5 5.8 33.3 14.8 43.9 4.1 4.9 4.7 6.9 3.2 12.5-1.1 4.1-3.5 14-4.6 18-1.5 5.7-6.1 7.7-11.2 5.6-31.3-12.8-45.9-47-45.9-85.6 0-63.6 53.7-139.9 160.1-139.9 85.5 0 141.8 61.9 141.8 128.3 0 87.9-48.9 153.5-120.9 153.5-24.2 0-46.9-13.1-54.7-27.9 0 0-13 51.6-15.8 61.6-4.7 17.3-14 34.5-22.5 48 20.1 5.9 41.4 9.2 63.5 9.2 123.7 0 224-100.3 224-224C480 132.3 379.7 32 256 32z"/>
</symbol>

<symbol id="svg-twitter" viewBox="0 0 512 512">
        <path d="M492 109.5c-17.4 7.7-36 12.9-55.6 15.3 20-12 35.4-31 42.6-53.6-18.7 11.1-39.4 19.2-61.5 23.5C399.8 75.8 374.6 64 346.8 64c-53.5 0-96.8 43.4-96.8 96.9 0 7.6.8 15 2.5 22.1-80.5-4-151.9-42.6-199.6-101.3-8.3 14.3-13.1 31-13.1 48.7 0 33.6 17.2 63.3 43.2 80.7-16-.4-31-4.8-44-12.1v1.2c0 47 33.4 86.1 77.7 95-8.1 2.2-16.7 3.4-25.5 3.4-6.2 0-12.3-.6-18.2-1.8 12.3 38.5 48.1 66.5 90.5 67.3-33.1 26-74.9 41.5-120.3 41.5-7.8 0-15.5-.5-23.1-1.4C62.8 432 113.7 448 168.3 448 346.6 448 444 300.3 444 172.2c0-4.2-.1-8.4-.3-12.5C462.6 146 479 129 492 109.5z"/>
</symbol>
</svg>