<?xml version="1.0" encoding="UTF-8" standalone="no"?>
<svg width="300px" height="310px" viewBox="0 0 300 310" version="1.1" xmlns="http://www.w3.org/2000/svg" xmlns:xlink="http://www.w3.org/1999/xlink" xmlns:sketch="http://www.bohemiancoding.com/sketch/ns">
    <!-- Generator: Sketch 3.2.1 (9971) - http://www.bohemiancoding.com/sketch -->
    <title>cfm-logo-text</title>
    <desc>Created with Sketch.</desc>
    <defs></defs>
    <g id="Logos" stroke="none" stroke-width="1" fill-rule="evenodd" sketch:type="MSPage">
        <g id="cfm-logo-text" sketch:type="MSLayerGroup">
            <path d="M76.3598326,243.157044 C75.7322176,264.803695 60.460251,273 41.6317992,273 C16.7364017,273 0,259.12933 0,230.967667 C0,202.806005 20.083682,189.145497 41.6317992,189.145497 C59.623431,189.145497 76.3598326,197.972286 76.3598326,216.466513 C76.3598326,225.293303 70.9205021,233.069284 61.5062762,233.069284 C53.5564854,233.069284 46.8619247,229.706697 46.8619247,220.879908 C46.8619247,213.103926 52.3012552,208.690531 59.832636,208.690531 C56.9037657,204.907621 51.6736402,203.016166 46.4435146,203.016166 C37.8661088,203.016166 29.916318,211.632794 29.916318,230.967667 C29.916318,250.30254 34.7280335,258.919169 46.4435146,258.919169 C55.2301255,258.919169 59.2050209,251.353349 60.041841,243.577367 L76.3598326,243.577367 L76.3598326,243.157044 Z M94.1422594,193.558891 L94.1422594,189.56582 C94.1422594,165.60739 104.393305,155.309469 125.732218,155.309469 C137.447699,155.309469 153.34728,159.722864 153.34728,173.803695 C153.34728,180.108545 148.32636,186.833718 141.841004,186.833718 C135.564854,186.833718 130.125523,182.420323 130.125523,175.69515 C130.125523,171.281755 132.845188,168.12933 136.820084,167.709007 L136.820084,167.288684 C134.728033,166.86836 132.845188,166.448037 130.543933,166.448037 C122.594142,166.448037 121.757322,173.383372 121.757322,180.318707 L121.757322,193.558891 L135.774059,193.558891 L135.774059,207.009238 L121.757322,207.009238 L121.757322,249.672055 C121.757322,254.295612 123.012552,256.817552 127.824268,256.817552 L134.728033,256.817552 L134.728033,270.267898 L80.7531381,270.267898 L80.7531381,256.817552 L87.8661088,256.817552 C92.6778243,256.817552 93.9330544,254.295612 93.9330544,249.672055 L93.9330544,207.009238 L81.5899582,207.009238 L81.5899582,193.558891 L94.1422594,193.558891 L94.1422594,193.558891 Z M185.564854,191.667436 L185.564854,205.117783 L185.983264,205.117783 C192.259414,194.6097 201.046025,189.145497 213.389121,189.145497 C223.849372,189.145497 232.217573,193.979215 236.192469,204.066975 C242.050209,194.819861 251.67364,189.145497 262.761506,189.145497 C280.125523,189.145497 288.284519,197.972286 288.284519,213.944573 L288.284519,249.882217 C288.284519,254.505774 289.539749,257.027714 294.351464,257.027714 L300,257.027714 L300,270.47806 L251.882845,270.47806 L251.882845,257.027714 L254.393305,257.027714 C259.205021,257.027714 260.460251,254.505774 260.460251,249.882217 L260.460251,218.988453 C260.460251,213.103926 257.531381,204.487298 250,204.487298 C241.004184,204.487298 237.866109,209.741339 237.866109,217.096998 L237.866109,253.034642 C237.866109,256.187067 238.702929,256.817552 243.933054,256.817552 L246.025105,256.817552 L246.025105,270.267898 L201.67364,270.267898 L201.67364,256.817552 L203.974895,256.817552 C208.786611,256.817552 210.041841,254.715935 210.041841,249.672055 L210.041841,218.778291 C210.041841,210.371824 208.995816,204.277136 199.372385,204.277136 C190.376569,204.277136 187.238494,211.422633 187.238494,219.408776 L187.238494,253.034642 C187.238494,255.34642 188.493724,256.817552 193.305439,256.817552 L196.025105,256.817552 L196.025105,270.267898 L146.23431,270.267898 L146.23431,256.817552 L153.34728,256.817552 C158.158996,256.817552 159.414226,254.295612 159.414226,249.672055 L159.414226,212.263279 C159.414226,207.639723 158.158996,205.117783 153.34728,205.117783 L146.65272,205.117783 L146.65272,191.667436 L185.564854,191.667436 L185.564854,191.667436 Z M162.970711,166.86836 C162.970711,170.020785 164.644351,170.441109 166.527197,168.12933 L192.259414,136.394919 C194.142259,134.083141 198.32636,131.981524 201.464435,131.981524 L288.702929,131.981524 C291.841004,131.981524 294.351464,129.459584 294.351464,126.307159 L294.351464,5.6743649 C294.351464,2.52193995 291.841004,0 288.702929,0 L168.619247,0 C165.481172,0 162.970711,2.52193995 162.970711,5.6743649 L162.970711,166.86836 Z" id="cfm-logo" sketch:type="MSShapeGroup"></path>
            <path d="M12.085079,299.3 C11.6983564,303.1 9.4747019,304.5 5.89751853,304.5 C2.51369642,304.5 0,302.2 0,297.5 C0,293.4 2.90041895,290.5 6.67096358,290.5 C9.08797937,290.5 12.1817596,291.8 12.1817596,294.7 C12.1817596,295.8 11.5049952,296.6 10.4415082,296.6 C9.7647438,296.6 9.08797937,296 9.08797937,295.3 C9.08797937,294.3 9.57138253,293.8 10.4415082,293.7 C10.0547857,292.3 8.21785369,291.8 6.96100548,291.8 C3.57718337,291.8 2.41701579,294.9 2.41701579,297.4 C2.41701579,300 3.48050274,303 6.47760232,303 C8.60457622,303 9.95810506,301.5 10.4415082,299.1 L12.085079,299.1 L12.085079,299.3 Z M18.4660006,293.3 C19.5294876,291.7 21.1730583,290.6 23.3000322,290.6 C26.1037705,290.6 27.6506607,292.5 27.6506607,295.4 L27.6506607,301.5 C27.6506607,302.4 27.8440219,302.8 28.7141476,302.8 L30.3577183,302.8 L30.3577183,304.1 L22.8166291,304.1 L22.8166291,302.8 L24.2668385,302.8 C25.1369642,302.8 25.3303255,302.4 25.3303255,301.5 L25.3303255,295.2 C25.3303255,293.3 24.6535611,292.1 22.5265872,292.1 C19.9162101,292.1 18.4660006,294.2 18.4660006,296.5 L18.4660006,301.5 C18.4660006,302.4 18.6593619,302.8 19.5294876,302.8 L21.1730583,302.8 L21.1730583,304.1 L13.3419272,304.1 L13.3419272,302.8 L15.0821785,302.8 C15.9523042,302.8 16.1456655,302.4 16.1456655,301.5 L16.1456655,288.2 C16.1456655,287.3 15.9523042,286.9 15.0821785,286.9 L13.3419272,286.9 L13.3419272,285.6 L18.4660006,285.6 L18.4660006,293.3 L18.4660006,293.3 Z M36.4485981,301.5 C36.4485981,302.4 36.6419594,302.8 37.5120851,302.8 L39.2523364,302.8 L39.2523364,304.1 L31.3245247,304.1 L31.3245247,302.8 L33.064776,302.8 C33.9349017,302.8 34.128263,302.4 34.128263,301.5 L34.128263,293.6 C34.128263,292.7 33.9349017,292.3 33.064776,292.3 L31.3245247,292.3 L31.3245247,291 L36.4485981,291 L36.4485981,301.5 L36.4485981,301.5 Z M34.901708,288.3 C34.128263,288.3 33.4514985,287.6 33.4514985,286.8 C33.4514985,286 34.128263,285.3 34.901708,285.3 C35.6751531,285.3 36.3519175,286 36.3519175,286.8 C36.4485981,287.7 35.7718337,288.3 34.901708,288.3 Z M51.8208186,299.3 C51.434096,303.1 49.2104415,304.5 45.6332581,304.5 C42.249436,304.5 39.7357396,302.2 39.7357396,297.5 C39.7357396,293.4 42.6361586,290.5 46.4067032,290.5 C48.823719,290.5 51.9174992,291.8 51.9174992,294.7 C51.9174992,295.8 51.2407348,296.6 50.1772478,296.6 C49.5004834,296.6 48.823719,296 48.823719,295.3 C48.823719,294.3 49.3071221,293.8 50.1772478,293.7 C49.7905253,292.3 47.9535933,291.8 46.6967451,291.8 C43.312923,291.8 42.1527554,294.9 42.1527554,297.4 C42.1527554,300 43.2162423,303 46.2133419,303 C48.3403158,303 49.6938447,301.5 50.1772478,299.1 L51.8208186,299.1 L51.8208186,299.3 Z M64.3893007,301.7 C64.3893007,302.5 64.5826619,303.2 65.0660651,303.2 C66.2262327,303.2 66.3229133,301.6 66.3229133,300.8 L66.3229133,299.6 L67.5797615,299.6 L67.5797615,300.4 C67.5797615,303.4 66.6129552,304.5 64.5826619,304.5 C63.2291331,304.5 62.455688,303.7 62.1656461,302.3 C60.8121173,303.8 59.3619078,304.5 57.4282952,304.5 C55.2046407,304.5 53.4643893,303.5 53.4643893,301 C53.4643893,297.4 58.2984209,297.4 61.1021592,296.1 C61.9722849,295.7 62.1656461,295.1 62.1656461,294.3 C62.1656461,292.7 61.4888817,291.9 59.1685466,291.9 C58.1050596,291.9 56.7515308,292.1 55.9780857,293 C56.7515308,293.1 57.2349339,293.6 57.2349339,294.4 C57.2349339,295.5 56.3648083,295.9 55.5913632,295.9 C54.6245569,295.9 54.1411537,295 54.1411537,293.9 C54.1411537,291.5 57.2349339,290.6 59.2652272,290.6 C62.3590074,290.6 64.3893007,291.5 64.3893007,295.2 L64.3893007,301.7 Z M62.1656461,297 C61.0054786,297.7 59.7486304,298 58.2017403,298.7 C56.7515308,299.3 56.171447,300 56.171447,300.9 C56.171447,302.4 56.944892,303.2 58.2984209,303.2 C60.0386723,303.2 62.2623268,301.5 62.2623268,299.5 L62.2623268,297 L62.1656461,297 Z M76.8611022,302.5 C80.9216887,302.5 82.4685788,303.7 82.4685788,306 C82.4685788,308.6 79.9548824,310 75.2175314,310 C70.866903,310 68.3532066,309 68.3532066,306.8 C68.3532066,305 69.803416,304.4 71.1569449,304.3 C69.9000967,304.3 68.8366097,303.4 68.8366097,302 C68.8366097,300.6 69.9967773,299.5 71.2536255,299.3 C69.9000967,298.5 69.3200129,297 69.3200129,295.4 C69.3200129,292 72.3171125,290.6 75.2175314,290.6 C76.7644215,290.6 78.3113116,291.2 79.5681598,292.2 C80.2449243,291.3 81.2117306,290.6 82.3718982,290.6 C83.8221076,290.6 84.9822752,291.5 84.9822752,293.1 C84.9822752,294.2 84.4988721,294.9 83.4353851,294.9 C82.6619401,294.9 82.1785369,294.3 82.1785369,293.6 C82.1785369,292.8 82.7586207,292.4 83.4353851,292.4 C83.2420238,292 82.7586207,292 82.2752175,292 C81.5017725,292 80.7283274,292.6 80.2449243,293.1 C80.6316468,293.9 81.0183693,294.9 81.0183693,296.1 C81.0183693,298.3 78.7947148,300.6 75.3142121,300.6 C73.0905575,300.6 72.8005156,300.1 72.3171125,300.1 C71.5436674,300.1 70.866903,300.8 70.866903,301.5 C70.866903,302.3 71.6403481,302.6 72.4137931,302.6 L76.8611022,302.6 L76.8611022,302.5 Z M73.6706413,304.6 C72.1237512,304.6 70.4801805,305.3 70.4801805,306.6 C70.4801805,308.4 72.8971963,308.8 75.6042539,308.8 C78.3113116,308.8 80.5349662,308.1 80.5349662,306.7 C80.5349662,305.2 79.5681598,304.7 77.8279085,304.7 L73.6706413,304.7 L73.6706413,304.6 Z M71.9303899,295.6 C71.9303899,297.8 72.8971963,299.2 75.2175314,299.2 C77.5378666,299.2 78.5046729,297.7 78.5046729,295.6 C78.5046729,293.4 77.5378666,291.9 75.2175314,291.9 C72.8971963,291.9 71.9303899,293.4 71.9303899,295.6 Z M99.5810506,297.6 C99.5810506,301.6 96.9706735,304.6 92.6200451,304.6 C88.2694167,304.6 85.6590396,301.7 85.6590396,297.6 C85.6590396,293.6 88.2694167,290.6 92.6200451,290.6 C96.9706735,290.6 99.5810506,293.5 99.5810506,297.6 Z M88.2694167,297.6 C88.2694167,300.6 89.3329036,303.2 92.7167257,303.2 C96.1005479,303.2 97.1640348,300.6 97.1640348,297.6 C97.1640348,294.6 96.1005479,292 92.7167257,292 C89.236223,291.9 88.2694167,294.5 88.2694167,297.6 Z M114.276507,292.3 L114.276507,301.5 C114.276507,302.4 114.953271,302.8 115.823397,302.8 L117.176926,302.8 L117.176926,304.1 L109.055752,304.1 L109.055752,302.8 L110.892684,302.8 C111.76281,302.8 111.956171,302.4 111.956171,301.5 L111.956171,292.3 L109.055752,292.3 L109.055752,291 L111.956171,291 L111.956171,289.1 C111.956171,286.1 114.083145,285 116.113439,285 C117.660329,285 120.077345,285.6 120.077345,287.9 C120.077345,288.9 119.40058,289.5 118.433774,289.5 C117.370287,289.5 116.983564,288.9 116.983564,288.1 C116.983564,287.4 117.466967,287.1 118.047051,287 C117.660329,286.4 116.693522,286.2 116.113439,286.2 C115.049952,286.2 114.179826,287.2 114.179826,288.7 L114.179826,290.9 L117.176926,290.9 L117.176926,292.2 L114.276507,292.2 L114.276507,292.3 Z M133.22591,297.6 C133.22591,301.6 130.615533,304.6 126.264905,304.6 C121.914277,304.6 119.303899,301.7 119.303899,297.6 C119.303899,293.6 121.914277,290.6 126.264905,290.6 C130.615533,290.6 133.22591,293.5 133.22591,297.6 Z M121.817596,297.6 C121.817596,300.6 122.881083,303.2 126.264905,303.2 C129.648727,303.2 130.712214,300.6 130.712214,297.6 C130.712214,294.6 129.648727,292 126.264905,292 C122.881083,291.9 121.817596,294.5 121.817596,297.6 Z M148.598131,297.6 C148.598131,301.6 145.987754,304.6 141.637125,304.6 C137.286497,304.6 134.67612,301.7 134.67612,297.6 C134.67612,293.6 137.286497,290.6 141.637125,290.6 C145.987754,290.6 148.598131,293.5 148.598131,297.6 Z M137.189816,297.6 C137.189816,300.6 138.253303,303.2 141.637125,303.2 C145.020947,303.2 146.084434,300.6 146.084434,297.6 C146.084434,294.6 145.020947,292 141.637125,292 C138.253303,291.9 137.189816,294.5 137.189816,297.6 Z M160.586529,301.6 C159.523042,303.5 158.459555,304.5 156.042539,304.5 C151.981953,304.5 150.241702,300.9 150.241702,297.5 C150.241702,294.1 151.981953,290.5 156.042539,290.5 C157.782791,290.5 159.619723,291.5 160.489849,293.3 L160.586529,293.3 L160.586529,288.4 C160.586529,287.5 160.199807,286.8 159.329681,286.8 L157.879471,286.8 L157.879471,285.5 L162.810184,285.5 L162.810184,301.7 C162.810184,302.4 163.196906,302.7 163.77699,302.7 L165.32388,302.7 L165.32388,304 L160.489849,304 L160.489849,301.6 L160.586529,301.6 Z M152.852079,297.6 C152.852079,300.8 153.915566,303 156.429262,303 C159.523042,303 160.586529,300.4 160.586529,297.6 C160.586529,294.8 159.523042,292.2 156.719304,292.2 C153.915566,292.2 152.852079,294.8 152.852079,297.6 Z M180.212697,293.4 C181.372865,291.6 182.436352,290.6 184.660006,290.6 C186.496938,290.6 187.753787,291.7 188.23719,293.4 C189.494038,291.6 190.750886,290.6 192.78118,290.6 C196.455044,290.6 196.841766,293.1 196.841766,296.7 L196.841766,301.5 C196.841766,302.4 197.035127,302.8 197.905253,302.8 L199.452143,302.8 L199.452143,304.1 L192.201096,304.1 L192.201096,302.8 L193.457944,302.8 C194.32807,302.8 194.521431,302.4 194.521431,301.5 L194.521431,294.7 C194.521431,293 193.554625,292.2 192.104415,292.2 C190.074122,292.2 188.430551,294.4 188.430551,296.2 L188.430551,301.5 C188.430551,302.4 188.623912,302.8 189.494038,302.8 L190.750886,302.8 L190.750886,304.1 L183.789881,304.1 L183.789881,302.8 L185.046729,302.8 C185.916855,302.8 186.110216,302.4 186.110216,301.5 L186.110216,295 C186.110216,293.3 185.24009,292.1 183.6932,292.1 C181.662907,292.1 180.116017,294.4 180.116017,296.1 L180.116017,301.4 C180.116017,302.3 180.309378,302.7 181.179504,302.7 L182.436352,302.7 L182.436352,304 L174.991943,304 L174.991943,302.7 L176.732195,302.7 C177.60232,302.7 177.795682,302.3 177.795682,301.4 L177.795682,293.5 C177.795682,292.6 177.60232,292.2 176.732195,292.2 L174.991943,292.2 L174.991943,290.9 L180.116017,290.9 L180.116017,293.4 L180.212697,293.4 Z M211.537222,301.7 C211.537222,302.5 211.730583,303.2 212.213986,303.2 C213.374154,303.2 213.470835,301.6 213.470835,300.8 L213.470835,299.6 L214.727683,299.6 L214.727683,300.4 C214.727683,303.4 213.760877,304.5 211.730583,304.5 C210.377054,304.5 209.603609,303.7 209.313568,302.3 C207.960039,303.8 206.509829,304.5 204.576217,304.5 C202.352562,304.5 200.612311,303.5 200.612311,301 C200.612311,297.4 205.446342,297.4 208.250081,296.1 C209.120206,295.7 209.313568,295.1 209.313568,294.3 C209.313568,292.7 208.636803,291.9 206.316468,291.9 C205.252981,291.9 203.899452,292.1 203.126007,293 C203.899452,293.1 204.382855,293.6 204.382855,294.4 C204.382855,295.5 203.51273,295.9 202.739285,295.9 C201.772478,295.9 201.289075,295 201.289075,293.9 C201.289075,291.5 204.382855,290.6 206.413149,290.6 C209.506929,290.6 211.537222,291.5 211.537222,295.2 L211.537222,301.7 Z M209.313568,297 C208.1534,297.7 206.896552,298 205.349662,298.7 C203.899452,299.3 203.319368,300 203.319368,300.9 C203.319368,302.4 204.092813,303.2 205.446342,303.2 C207.186594,303.2 209.410248,301.5 209.410248,299.5 L209.410248,297 L209.313568,297 Z M224.202385,302.5 C228.262971,302.5 229.809861,303.7 229.809861,306 C229.809861,308.6 227.296165,310 222.558814,310 C218.208186,310 215.694489,309 215.694489,306.8 C215.694489,305 217.144699,304.4 218.498228,304.3 C217.241379,304.3 216.177892,303.4 216.177892,302 C216.177892,300.6 217.33806,299.5 218.594908,299.3 C217.241379,298.5 216.661296,297 216.661296,295.4 C216.661296,292 219.658395,290.6 222.558814,290.6 C224.105704,290.6 225.652594,291.2 226.909442,292.2 C227.586207,291.3 228.553013,290.6 229.713181,290.6 C231.16339,290.6 232.323558,291.5 232.323558,293.1 C232.323558,294.2 231.840155,294.9 230.776668,294.9 C230.003223,294.9 229.51982,294.3 229.51982,293.6 C229.51982,292.8 230.099903,292.4 230.776668,292.4 C230.583306,292 230.099903,292 229.6165,292 C228.843055,292 228.06961,292.6 227.586207,293.1 C227.972929,293.9 228.359652,294.9 228.359652,296.1 C228.359652,298.3 226.135997,300.6 222.655495,300.6 C220.43184,300.6 220.141798,300.1 219.658395,300.1 C218.88495,300.1 218.208186,300.8 218.208186,301.5 C218.208186,302.3 218.981631,302.6 219.755076,302.6 L224.202385,302.6 L224.202385,302.5 Z M220.915243,304.6 C219.271673,304.6 217.724782,305.3 217.724782,306.6 C217.724782,308.4 220.141798,308.8 222.848856,308.8 C225.555914,308.8 227.779568,308.1 227.779568,306.7 C227.779568,305.2 226.812762,304.7 225.07251,304.7 L220.915243,304.7 L220.915243,304.6 Z M219.174992,295.6 C219.174992,297.8 220.141798,299.2 222.462133,299.2 C224.782469,299.2 225.749275,297.7 225.749275,295.6 C225.749275,293.4 224.782469,291.9 222.462133,291.9 C220.141798,291.9 219.174992,293.4 219.174992,295.6 Z M243.925234,301.7 C243.925234,302.5 244.118595,303.2 244.601998,303.2 C245.762166,303.2 245.858846,301.6 245.858846,300.8 L245.858846,299.6 L247.115694,299.6 L247.115694,300.4 C247.115694,303.4 246.148888,304.5 244.118595,304.5 C242.765066,304.5 241.991621,303.7 241.701579,302.3 C240.34805,303.8 238.897841,304.5 236.964228,304.5 C234.740574,304.5 233.000322,303.5 233.000322,301 C233.000322,297.4 237.834354,297.4 240.638092,296.1 C241.508218,295.7 241.701579,295.1 241.701579,294.3 C241.701579,292.7 241.024815,291.9 238.70448,291.9 C237.640993,291.9 236.287464,292.1 235.514019,293 C236.287464,293.1 236.770867,293.6 236.770867,294.4 C236.770867,295.5 235.900741,295.9 235.127296,295.9 C234.16049,295.9 233.677087,295 233.677087,293.9 C233.677087,291.5 236.770867,290.6 238.80116,290.6 C241.89494,290.6 243.925234,291.5 243.925234,295.2 L243.925234,301.7 Z M241.604898,297 C240.444731,297.7 239.187883,298 237.640993,298.7 C236.190783,299.3 235.610699,300 235.610699,300.9 C235.610699,302.4 236.384144,303.2 237.737673,303.2 C239.477925,303.2 241.701579,301.5 241.701579,299.5 L241.701579,297 L241.604898,297 Z M248.082501,304.1 L248.082501,302.8 L256.880438,292.3 L252.433129,292.3 C250.499517,292.3 249.919433,293.6 249.822752,296.4 L248.565904,296.4 L248.565904,290.9 L259.684177,290.9 L259.684177,292.2 L250.789558,302.7 L255.430229,302.7 C258.040606,302.7 258.427328,301.7 258.62069,298.1 L259.877538,298.1 L259.877538,304 L248.082501,304 L248.082501,304.1 Z M266.741863,301.5 C266.741863,302.4 266.935224,302.8 267.80535,302.8 L269.545601,302.8 L269.545601,304.1 L261.617789,304.1 L261.617789,302.8 L263.358041,302.8 C264.228166,302.8 264.421528,302.4 264.421528,301.5 L264.421528,293.6 C264.421528,292.7 264.228166,292.3 263.358041,292.3 L261.617789,292.3 L261.617789,291 L266.741863,291 L266.741863,301.5 L266.741863,301.5 Z M265.194973,288.3 C264.421528,288.3 263.744763,287.6 263.744763,286.8 C263.744763,286 264.421528,285.3 265.194973,285.3 C265.968418,285.3 266.645182,286 266.645182,286.8 C266.645182,287.7 266.065098,288.3 265.194973,288.3 Z M275.733161,293.4 C276.893329,291.6 278.5369,290.6 280.567193,290.6 C283.370931,290.6 284.917821,292.5 284.917821,295.4 L284.917821,301.5 C284.917821,302.4 285.111183,302.8 285.981308,302.8 L287.624879,302.8 L287.624879,304.1 L280.08379,304.1 L280.08379,302.8 L281.533999,302.8 C282.404125,302.8 282.597486,302.4 282.597486,301.5 L282.597486,295.2 C282.597486,293.3 281.920722,292.1 279.793748,292.1 C277.183371,292.1 275.733161,294.2 275.733161,296.5 L275.733161,301.5 C275.733161,302.4 275.926523,302.8 276.796648,302.8 L278.440219,302.8 L278.440219,304.1 L270.609088,304.1 L270.609088,302.8 L272.349339,302.8 C273.219465,302.8 273.412826,302.4 273.412826,301.5 L273.412826,293.6 C273.412826,292.7 273.219465,292.3 272.349339,292.3 L270.609088,292.3 L270.609088,291 L275.733161,291 L275.733161,293.4 L275.733161,293.4 Z M290.235256,297.7 C290.235256,300.5 290.81534,303.2 294.005801,303.2 C296.132775,303.2 297.486304,302 298.066387,299.8 L299.613277,299.8 C299.033194,302.8 297.196262,304.5 294.005801,304.5 C290.041895,304.5 287.72156,302.1 287.72156,297.5 C287.72156,292.9 290.041895,290.5 294.005801,290.5 C298.356429,290.5 299.806639,293.7 300,297.6 L290.235256,297.6 L290.235256,297.7 Z M297.389623,296.4 C297.389623,294 296.326136,291.9 293.90912,291.9 C291.395424,291.9 290.235256,294 290.235256,296.4 L297.389623,296.4 L297.389623,296.4 Z" id="cfm-text" sketch:type="MSShapeGroup"></path>
        </g>
    </g>
</svg>
