<?xml version="1.0" encoding="UTF-8" standalone="no"?>
<svg width="320px" height="290px" viewBox="0 0 320 290" version="1.1" xmlns="http://www.w3.org/2000/svg" xmlns:xlink="http://www.w3.org/1999/xlink" xmlns:sketch="http://www.bohemiancoding.com/sketch/ns">
    <!-- Generator: Sketch 3.2.1 (9971) - http://www.bohemiancoding.com/sketch -->
    <title>cfm-logo</title>
    <desc>Created with Sketch.</desc>
    <defs></defs>
    <g id="Logos" stroke="none" stroke-width="1" fill-rule="evenodd" sketch:type="MSPage">
        <path d="M81.4504881,258.298691 C80.7810321,281.293303 64.4909344,290 44.4072524,290 C17.8521618,290 0,275.265589 0,245.350269 C0,215.43495 21.4225941,200.923788 44.4072524,200.923788 C63.5983264,200.923788 81.4504881,210.300231 81.4504881,229.946112 C81.4504881,239.322556 75.6485356,247.582756 65.6066946,247.582756 C57.1269177,247.582756 49.986053,244.010778 49.986053,234.634334 C49.986053,226.374134 55.7880056,221.685912 63.8214784,221.685912 C60.6973501,217.667436 55.1185495,215.658199 49.539749,215.658199 C40.390516,215.658199 31.9107392,224.811393 31.9107392,245.350269 C31.9107392,265.889145 37.0432357,275.04234 49.539749,275.04234 C58.9121339,275.04234 63.1520223,267.005389 64.0446304,258.745189 L81.4504881,258.745189 L81.4504881,258.298691 Z M100.41841,205.612009 L100.41841,201.370285 C100.41841,175.919938 111.352859,164.980754 134.114365,164.980754 C146.610879,164.980754 163.570432,169.668976 163.570432,184.626636 C163.570432,191.324095 158.214784,198.468052 151.297071,198.468052 C144.60251,198.468052 138.800558,193.779831 138.800558,186.635874 C138.800558,181.947652 141.701534,178.598922 145.941423,178.152425 L145.941423,177.705928 C143.709902,177.25943 141.701534,176.812933 139.246862,176.812933 C130.767085,176.812933 129.874477,184.180139 129.874477,191.547344 L129.874477,205.612009 L144.825662,205.612009 L144.825662,219.899923 L129.874477,219.899923 L129.874477,265.2194 C129.874477,270.13087 131.213389,272.809854 136.345886,272.809854 L143.709902,272.809854 L143.709902,287.097768 L86.1366806,287.097768 L86.1366806,272.809854 L93.7238494,272.809854 C98.8563459,272.809854 100.195258,270.13087 100.195258,265.2194 L100.195258,219.899923 L87.0292887,219.899923 L87.0292887,205.612009 L100.41841,205.612009 L100.41841,205.612009 Z M197.935844,203.602771 L197.935844,217.890685 L198.382148,217.890685 C205.076709,206.728253 214.449093,200.923788 227.615063,200.923788 C238.772664,200.923788 247.698745,206.058507 251.938633,216.774442 C258.18689,206.951501 268.451883,200.923788 280.27894,200.923788 C298.800558,200.923788 307.503487,210.300231 307.503487,227.267129 L307.503487,265.442648 C307.503487,270.354119 308.842399,273.033102 313.974895,273.033102 L320,273.033102 L320,287.321016 L268.675035,287.321016 L268.675035,273.033102 L271.352859,273.033102 C276.485356,273.033102 277.824268,270.354119 277.824268,265.442648 L277.824268,232.625096 C277.824268,226.374134 274.700139,217.220939 266.666667,217.220939 C257.07113,217.220939 253.723849,222.802156 253.723849,230.615858 L253.723849,268.791378 C253.723849,272.140108 254.616457,272.809854 260.195258,272.809854 L262.426778,272.809854 L262.426778,287.097768 L215.11855,287.097768 L215.11855,272.809854 L217.573222,272.809854 C222.705718,272.809854 224.04463,270.577367 224.04463,265.2194 L224.04463,232.401848 C224.04463,223.471901 222.92887,216.997691 212.663877,216.997691 C203.06834,216.997691 199.72106,224.588145 199.72106,233.071594 L199.72106,268.791378 C199.72106,271.247113 201.059972,272.809854 206.192469,272.809854 L209.093445,272.809854 L209.093445,287.097768 L155.983264,287.097768 L155.983264,272.809854 L163.570432,272.809854 C168.702929,272.809854 170.041841,270.13087 170.041841,265.2194 L170.041841,225.481139 C170.041841,220.569669 168.702929,217.890685 163.570432,217.890685 L156.429568,217.890685 L156.429568,203.602771 L197.935844,203.602771 L197.935844,203.602771 Z M177.62901,178.598922 L205.076709,144.888376 C207.085077,142.43264 211.548117,140.200154 214.895397,140.200154 L307.949791,140.200154 C311.297071,140.200154 313.974895,137.52117 313.974895,134.17244 L313.974895,6.02771363 C313.974895,2.67898383 311.297071,0 307.949791,0 L179.86053,0 C176.51325,0 173.835425,2.67898383 173.835425,6.02771363 L173.835425,177.25943 C173.835425,180.60816 175.620642,181.054657 177.62901,178.598922 Z" id="cfm-logo" sketch:type="MSShapeGroup"></path>
    </g>
</svg>
